<?xml version="1.0" encoding="iso-8859-1"?>
<!-- Generator: Adobe Illustrator 19.0.0, SVG Export Plug-In . SVG Version: 6.00 Build 0)  -->
<svg version="1.1" id="Layer_1" xmlns="http://www.w3.org/2000/svg" xmlns:xlink="http://www.w3.org/1999/xlink" x="0px" y="0px"
	 viewBox="0 0 511.999 511.999" style="enable-background:new 0 0 511.999 511.999;" xml:space="preserve">
<rect x="319.997" y="71.944" style="fill:#FEB860;" width="119.999" height="103.995"/>
<rect x="319.997" y="143.952" style="fill:#FEC986;" width="119.999" height="32"/>
<path style="fill:#C8546F;" d="M318.377,407.943H177.622c-58.331,0-105.618-47.286-105.618-105.618v-30.379h351.992v30.379
	C423.995,360.656,376.709,407.943,318.377,407.943z"/>
<rect x="72.008" y="247.947" style="fill:#9B4573;" width="351.995" height="23.999"/>
<g>
	<rect x="48.004" y="239.945" style="fill:#1D1D1B;" width="399.986" height="15.999"/>
	<path style="fill:#1D1D1B;" d="M128.002,231.946h-15.999v-59.998c0-15.438,12.56-27.999,27.999-27.999s27.999,12.56,27.999,27.999
		v4h-15.999v-4c0-6.616-5.384-12-12-12s-12,5.384-12,12V231.946z"/>
	<rect x="136.003" y="207.948" style="fill:#1D1D1B;" width="15.999" height="15.999"/>
	<rect x="88.001" y="207.948" style="fill:#1D1D1B;" width="15.999" height="15.999"/>
	<path style="fill:#1D1D1B;" d="M511.988,439.733l-167.991,0.104v-26.018c50.117-10.016,87.998-54.351,87.998-107.371v-42.502
		h-15.999v42.502c0,51.553-41.942,93.496-93.495,93.496H173.498c-51.553,0-93.495-41.943-93.495-93.496v-42.502h-16v42.502
		c0,53.02,37.881,97.353,87.998,107.371v26.136L0,440.049l0.01,15.999l511.989-0.316L511.988,439.733z M168.001,439.946v-24.141
		c1.821,0.091,3.653,0.138,5.498,0.138h149.002c1.843,0,3.676-0.047,5.498-0.138v24.042L168.001,439.946z"/>
	<polygon style="fill:#1D1D1B;" points="479.994,95.949 455.995,95.949 455.995,79.951 463.995,79.951 463.995,55.951 
		495.994,55.951 495.994,71.95 479.994,71.95 	"/>
	<polygon style="fill:#1D1D1B;" points="303.999,95.949 280,95.949 280,71.95 263.999,71.95 263.999,55.951 295.999,55.951 
		295.999,79.951 303.999,79.951 	"/>
	<polygon style="fill:#1D1D1B;" points="447.995,175.948 431.995,175.948 431.995,79.95 327.997,79.95 327.997,175.948 
		311.999,175.948 311.999,63.951 447.995,63.951 	"/>
	<rect x="336.001" y="159.946" style="fill:#1D1D1B;" width="16" height="15.999"/>
	<rect x="359.997" y="159.946" style="fill:#1D1D1B;" width="16" height="15.999"/>
	<rect x="383.993" y="159.946" style="fill:#1D1D1B;" width="16" height="15.999"/>
	<rect x="407.999" y="159.946" style="fill:#1D1D1B;" width="15.999" height="15.999"/>
</g>
<rect x="96.003" y="263.941" style="fill:#FFFFFF;" width="303.993" height="15.999"/>
<g>
</g>
<g>
</g>
<g>
</g>
<g>
</g>
<g>
</g>
<g>
</g>
<g>
</g>
<g>
</g>
<g>
</g>
<g>
</g>
<g>
</g>
<g>
</g>
<g>
</g>
<g>
</g>
<g>
</g>
</svg>
