<?xml version="1.0" encoding="iso-8859-1"?>
<!-- Generator: Adobe Illustrator 19.0.0, SVG Export Plug-In . SVG Version: 6.00 Build 0)  -->
<svg version="1.1" id="Layer_1" xmlns="http://www.w3.org/2000/svg" xmlns:xlink="http://www.w3.org/1999/xlink" x="0px" y="0px"
	 viewBox="0 0 512 512" style="enable-background:new 0 0 512 512;" xml:space="preserve">
<path d="M503.467,392.533H8.533c-4.693,0-8.533,3.84-8.533,8.533v102.4C0,508.16,3.84,512,8.533,512h494.933
	c4.693,0,8.533-3.84,8.533-8.533v-102.4C512,396.373,508.16,392.533,503.467,392.533z M494.933,494.933H17.067V409.6h25.6v17.067
	c0,4.693,3.84,8.533,8.533,8.533s8.533-3.84,8.533-8.533V409.6h34.133v34.133c0,4.693,3.84,8.533,8.533,8.533
	c4.693,0,8.533-3.84,8.533-8.533V409.6h34.133v17.067c0,4.693,3.84,8.533,8.533,8.533s8.533-3.84,8.533-8.533V409.6h34.133v34.133
	c0,4.693,3.84,8.533,8.533,8.533c4.693,0,8.533-3.84,8.533-8.533V409.6h34.133v17.067c0,4.693,3.84,8.533,8.533,8.533
	c4.693,0,8.533-3.84,8.533-8.533V409.6h34.133v34.133c0,4.693,3.84,8.533,8.533,8.533s8.533-3.84,8.533-8.533V409.6h34.133v17.067
	c0,4.693,3.84,8.533,8.533,8.533s8.533-3.84,8.533-8.533V409.6h34.133v34.133c0,4.693,3.84,8.533,8.533,8.533
	c4.693,0,8.533-3.84,8.533-8.533V409.6h34.133v17.067c0,4.693,3.84,8.533,8.533,8.533s8.533-3.84,8.533-8.533V409.6h25.6V494.933z"
	/>
<g>
	<rect x="17.067" y="409.6" style="fill:#F6981E;" width="25.6" height="17.067"/>
	<rect x="59.733" y="409.6" style="fill:#F6981E;" width="34.133" height="17.067"/>
	<rect x="110.933" y="409.6" style="fill:#F6981E;" width="34.133" height="17.067"/>
	<rect x="162.133" y="409.6" style="fill:#F6981E;" width="34.133" height="17.067"/>
	<rect x="213.333" y="409.6" style="fill:#F6981E;" width="34.133" height="17.067"/>
	<rect x="264.533" y="409.6" style="fill:#F6981E;" width="34.133" height="17.067"/>
	<rect x="366.933" y="409.6" style="fill:#F6981E;" width="34.133" height="17.067"/>
	<rect x="418.133" y="409.6" style="fill:#F6981E;" width="34.133" height="17.067"/>
	<rect x="469.333" y="409.6" style="fill:#F6981E;" width="25.6" height="17.067"/>
	<path style="fill:#F6981E;" d="M494.933,426.667v68.267H460.8V435.2c4.693,0,8.533-3.84,8.533-8.533H494.933z"/>
</g>
<path style="fill:#FDB50D;" d="M460.8,435.2v59.733H17.067v-68.267h25.6c0,4.693,3.84,8.533,8.533,8.533s8.533-3.84,8.533-8.533
	h34.133v17.067c0,4.693,3.84,8.533,8.533,8.533c4.693,0,8.533-3.84,8.533-8.533v-17.067h34.133c0,4.693,3.84,8.533,8.533,8.533
	s8.533-3.84,8.533-8.533h34.133v17.067c0,4.693,3.84,8.533,8.533,8.533c4.693,0,8.533-3.84,8.533-8.533v-17.067h34.133
	c0,4.693,3.84,8.533,8.533,8.533c4.693,0,8.533-3.84,8.533-8.533h34.133v17.067c0,4.693,3.84,8.533,8.533,8.533
	s8.533-3.84,8.533-8.533v-17.067h34.133c0,4.693,3.84,8.533,8.533,8.533s8.533-3.84,8.533-8.533h34.133v17.067
	c0,4.693,3.84,8.533,8.533,8.533c4.693,0,8.533-3.84,8.533-8.533v-17.067h34.133C452.267,431.36,456.107,435.2,460.8,435.2z"/>
<rect x="315.733" y="409.6" style="fill:#F6981E;" width="34.133" height="17.067"/>
<path d="M76.8,375.467h358.4c4.719,0,8.533-3.814,8.533-8.533c0-4.719-3.814-8.533-8.533-8.533h-59.127H85.333V67.618V8.533
	C85.333,3.814,81.519,0,76.8,0c-4.719,0-8.533,3.814-8.533,8.533v358.4C68.267,371.652,72.081,375.467,76.8,375.467z"/>
<path d="M443.136,273.152c-1.28-2.987-4.267-4.949-7.509-4.949h-48.981c-4.181-114.517-96.597-206.933-211.115-211.115V8.107
	c0-3.243-1.963-6.229-4.949-7.509c-3.072-1.195-6.571-0.512-8.875,1.792l-56.917,56.235c-1.536,1.536-2.389,3.584-2.389,5.803
	c0,2.133,0.853,4.181,2.389,5.717l56.832,57.515c1.536,1.536,3.669,2.389,5.803,2.389c1.024,0,2.048-0.256,3.072-0.597
	c3.072-1.28,5.035-4.267,5.035-7.509V73.387c105.557,4.181,190.635,89.259,194.816,194.816h-48.555
	c-3.243,0-6.229,1.963-7.509,5.035c-1.195,3.072-0.512,6.571,1.792,8.875l57.515,56.832c1.536,1.536,3.584,2.389,5.717,2.389
	c2.304-0.085,4.267-0.853,5.803-2.389l56.235-56.917C443.648,279.723,444.331,276.224,443.136,273.152z M159.317,102.144
	l-11.093-11.179l-26.197-26.453l26.197-25.941l11.093-11.008V102.144z M379.221,321.707l-9.045-8.96l-28.587-28.331h74.581
	L379.221,321.707z"/>
<polygon style="fill:#E5E5E5;" points="416.171,284.416 379.221,321.707 370.176,312.747 398.251,284.416 "/>
<polygon style="fill:#F9F9F9;" points="398.251,284.416 370.176,312.747 341.589,284.416 "/>
<polygon style="fill:#E5E5E5;" points="159.317,27.563 159.317,102.144 148.224,90.965 148.224,38.571 "/>
<polygon style="fill:#F9F9F9;" points="148.224,38.571 148.224,90.965 122.027,64.512 "/>
<g>
</g>
<g>
</g>
<g>
</g>
<g>
</g>
<g>
</g>
<g>
</g>
<g>
</g>
<g>
</g>
<g>
</g>
<g>
</g>
<g>
</g>
<g>
</g>
<g>
</g>
<g>
</g>
<g>
</g>
</svg>
