<?xml version="1.0" encoding="iso-8859-1"?>
<!-- Generator: Adobe Illustrator 19.0.0, SVG Export Plug-In . SVG Version: 6.00 Build 0)  -->
<svg version="1.1" id="Layer_1" xmlns="http://www.w3.org/2000/svg" xmlns:xlink="http://www.w3.org/1999/xlink" x="0px" y="0px"
	 viewBox="0 0 512 512" style="enable-background:new 0 0 512 512;" xml:space="preserve">
<path style="fill:#73C1DD;" d="M457.004,164.659H54.996c-17.478,0-31.647,14.169-31.647,31.647v62.351h465.302v-62.351
	C488.651,178.828,474.482,164.659,457.004,164.659z"/>
<g>
	<rect x="23.349" y="258.652" style="fill:#F2F2F2;" width="465.298" height="202.944"/>
	<rect x="10.199" y="461.596" style="fill:#F2F2F2;" width="491.602" height="31.934"/>
</g>
<g>
	<rect x="172.367" y="310.158" style="fill:#FFAD61;" width="167.267" height="151.448"/>
	<polygon style="fill:#FFAD61;" points="325.355,124.027 180.526,124.027 180.526,37.334 363.092,37.334 	"/>
</g>
<g>
	<circle style="fill:#666666;" cx="212.143" cy="144.421" r="19.378"/>
	<circle style="fill:#666666;" cx="292.717" cy="144.421" r="19.378"/>
</g>
<g>
	<path style="fill:#4D3D36;" d="M498.85,196.306c0-23.075-18.772-41.846-41.846-41.846H320.54c1.134-3.134,1.755-6.513,1.755-10.034
		c0-3.583-0.642-7.018-1.813-10.199h4.873c4.058,0,7.732-2.406,9.352-6.129l37.737-86.693c1.373-3.154,1.064-6.785-0.821-9.662
		c-1.886-2.875-5.092-4.609-8.531-4.609h-175.28L171.93,11.253c-1.912-1.912-4.507-2.987-7.212-2.987H135.14
		c-5.633,0-10.199,4.567-10.199,10.199s4.566,10.199,10.199,10.199h25.353l9.833,9.835v85.528c0,5.632,4.566,10.199,10.199,10.199
		h3.853c-1.172,3.181-1.813,6.616-1.813,10.199c0,3.521,0.621,6.899,1.755,10.034H54.996c-23.075,0-41.846,18.772-41.846,41.846
		V451.4h-2.951C4.566,451.4,0,455.968,0,461.6v31.936c0,5.632,4.566,10.199,10.199,10.199h491.602
		c5.632,0,10.199-4.567,10.199-10.199V461.6c0-5.632-4.567-10.199-10.199-10.199h-2.951V196.306z M283.538,144.425
		c0-5.062,4.117-9.179,9.179-9.179c5.062,0,9.179,4.117,9.179,9.179c0,5.062-4.117,9.179-9.179,9.179
		C287.655,153.604,283.538,149.487,283.538,144.425z M318.67,113.827H190.725v-8.159h114.231c5.632,0,10.199-4.567,10.199-10.199
		s-4.567-10.199-10.199-10.199H190.725V77.11h114.231c5.632,0,10.199-4.567,10.199-10.199s-4.567-10.199-10.199-10.199H190.725
		v-9.179h156.803L318.67,113.827z M221.323,144.425c0,5.062-4.118,9.179-9.179,9.179s-9.179-4.117-9.179-9.179
		c0-5.062,4.118-9.179,9.179-9.179S221.323,139.364,221.323,144.425z M239.908,134.226h25.045
		c-1.172,3.181-1.813,6.616-1.813,10.199c0,3.521,0.621,6.899,1.755,10.034h-24.929c1.134-3.134,1.755-6.513,1.755-10.034
		C241.721,140.843,241.08,137.407,239.908,134.226z M33.548,196.306c0-11.827,9.622-21.448,21.448-21.448h402.008
		c11.827,0,21.448,9.622,21.448,21.448v52.152H33.548V196.306z M33.548,268.855h444.904v182.544H349.833V310.157
		c0-5.632-4.567-10.199-10.199-10.199H172.367c-5.633,0-10.199,4.567-10.199,10.199V451.4H33.548V268.855z M182.566,451.4V320.356
		h62.215V451.4L182.566,451.4L182.566,451.4z M265.179,320.356h64.255V451.4h-64.255V320.356z M491.602,471.799v11.537H20.398
		v-11.537H491.602z"/>
	<path style="fill:#4D3D36;" d="M455.271,187.261H354.117c-5.632,0-10.199,4.567-10.199,10.199s4.567,10.199,10.199,10.199h101.154
		c5.632,0,10.199-4.567,10.199-10.199S460.903,187.261,455.271,187.261z"/>
	<path style="fill:#4D3D36;" d="M322.761,187.261h-8.093c-5.632,0-10.199,4.567-10.199,10.199s4.567,10.199,10.199,10.199h8.093
		c5.632,0,10.199-4.567,10.199-10.199S328.393,187.261,322.761,187.261z"/>
</g>
<g>
</g>
<g>
</g>
<g>
</g>
<g>
</g>
<g>
</g>
<g>
</g>
<g>
</g>
<g>
</g>
<g>
</g>
<g>
</g>
<g>
</g>
<g>
</g>
<g>
</g>
<g>
</g>
<g>
</g>
</svg>
