<?xml version="1.0" encoding="iso-8859-1"?>
<!-- Generator: Adobe Illustrator 19.0.0, SVG Export Plug-In . SVG Version: 6.00 Build 0)  -->
<svg version="1.1" id="Layer_1" xmlns="http://www.w3.org/2000/svg" xmlns:xlink="http://www.w3.org/1999/xlink" x="0px" y="0px"
	 viewBox="0 0 504.123 504.123" style="enable-background:new 0 0 504.123 504.123;" xml:space="preserve">
<path style="fill:#08C19D;" d="M473.064,421.715c0,4.766-3.844,8.633-8.617,8.633H57.982c-4.758,0-8.617-3.86-8.617-8.633V222.082
	c0-4.766,3.86-8.617,8.617-8.617h406.465c4.766,0,8.617,3.844,8.617,8.617L473.064,421.715L473.064,421.715z"/>
<path style="fill:#07ADA8;" d="M49.373,222.082c0-4.766,3.86-8.617,8.617-8.617h406.465c4.766,0,8.617,3.844,8.617,8.617v199.633
	c0,4.766-3.844,8.633-8.617,8.633"/>
<g>
	<path style="fill:#5C686D;" d="M105.74,196.45v-21.047h-8.617v21.047c-7.712,1.938-13.462,8.877-13.462,17.187
		c0,9.799,7.987,17.77,17.778,17.77c9.807,0,17.778-7.971,17.778-17.77C119.217,205.328,113.475,198.396,105.74,196.45z
		 M101.439,222.791c-5.057,0-9.161-4.104-9.161-9.153s4.104-9.153,9.161-9.153s9.161,4.104,9.161,9.153
		S106.496,222.791,101.439,222.791z"/>
	<path style="fill:#5C686D;" d="M425.299,196.45v-21.047h-8.609v21.047c-7.712,1.938-13.47,8.877-13.47,17.187
		c0,9.799,7.979,17.77,17.762,17.77c9.83,0,17.786-7.971,17.786-17.77C438.768,205.328,433.034,198.396,425.299,196.45z
		 M420.982,222.791c-5.041,0-9.145-4.104-9.145-9.153s4.104-9.153,9.145-9.153c5.065,0,9.169,4.104,9.169,9.153
		S426.047,222.791,420.982,222.791z"/>
</g>
<path style="fill:#6D8C99;" d="M504.123,161.036c0,10.398-8.444,18.849-18.857,18.849H37.163c-10.405,0-18.849-8.444-18.849-18.849
	l0,0c0-10.413,8.436-18.865,18.849-18.865h448.11C495.679,142.178,504.123,150.623,504.123,161.036L504.123,161.036z"/>
<path style="fill:#597782;" d="M504.123,161.036L504.123,161.036c0,10.398-8.444,18.849-18.857,18.849H37.163
	c-10.405,0-18.849-8.444-18.849-18.849l0,0"/>
<path style="fill:#5A6C77;" d="M2.694,73.775c-0.922,0-1.788,0.213-2.694,0.276v173.97c0.906,0.063,1.772,0.26,2.694,0.26
	c18.739,0,33.942-15.187,33.942-33.926V107.717C36.628,88.978,21.433,73.775,2.694,73.775z"/>
<path style="fill:#42525B;" d="M2.694,99.635c-0.922,0-1.788,0.142-2.694,0.181v122.431c0.906,0.032,1.772,0.181,2.694,0.181
	c18.739,0,33.942-10.689,33.942-23.875V123.51C36.628,110.316,21.433,99.635,2.694,99.635z"/>
<path style="fill:#6D8C99;" d="M47.403,210.59c0,3.261-2.662,5.923-5.939,5.923l0,0c-3.261,0-5.923-2.662-5.923-5.923v-99.107
	c0-3.277,2.662-5.923,5.923-5.923l0,0c3.277,0,5.939,2.647,5.939,5.923V210.59z"/>
<g>
	<path style="fill:#FFE000;" d="M134.459,340.236c-1.016-4.427-2.694-7.893-5.033-10.335c4.695-3.419,7.444-8.72,7.444-14.801
		c0-5.372-1.985-10.09-5.553-13.233c-4.198-3.781-9.925-5.474-18.566-5.474c-5.372,0-10.831,0.465-14.612,1.229
		c-1.615,0.339-2.773,1.757-2.773,3.403v55.398c0,1.906,1.552,3.458,3.474,3.458h7.247c1.922,0,3.474-1.552,3.474-3.458v-20.858
		h3.214c4.427,0.165,6.506,1.339,8.003,8.216c1.953,8.696,3.08,12.587,4.135,14.383c0.614,1.063,1.757,1.725,3.001,1.725h7.491
		c1.213,0,2.355-0.646,2.985-1.694c0.614-1.048,0.646-2.355,0.063-3.434C137.397,352.792,135.712,345.529,134.459,340.236z
		 M122.691,315.928c0,4.506-3.434,7.2-9.184,7.2h-3.938v-14.06c0.969-0.095,2.182-0.158,3.663-0.158
		C122.691,309.02,122.691,314.037,122.691,315.928z"/>
	<path style="fill:#FFE000;" d="M183.335,295.881c-17.4,0-29.538,13.556-29.538,32.973c0,18.802,11.8,31.957,28.711,31.957
		c14.69,0,29.538-10.216,29.538-33.044C212.047,308.996,200.247,295.881,183.335,295.881z M182.997,308.744
		c9.925,0,14.446,10.027,14.446,19.354c0,9.878-4.49,19.85-14.525,19.85c-9.925,0-14.431-9.988-14.431-19.259
		C168.495,319.488,172.292,308.744,182.997,308.744z"/>
	<path style="fill:#FFE000;" d="M257.418,295.881c-17.4,0-29.538,13.556-29.538,32.973c0,18.802,11.8,31.957,28.711,31.957
		c14.706,0,29.538-10.216,29.538-33.044C286.121,308.996,274.322,295.881,257.418,295.881z M257.095,308.744
		c9.909,0,14.431,10.027,14.431,19.354c0,9.878-4.49,19.85-14.525,19.85c-9.925,0-14.431-9.988-14.431-19.259
		C242.57,319.488,246.367,308.744,257.095,308.744z"/>
</g>
<g>
	<path style="fill:#FFBC00;" d="M257.418,295.881c-12.186,0-21.677,6.735-26.333,17.369l12.839,6.443
		c1.89-6.018,5.923-10.957,13.17-10.957c9.909,0,14.431,10.027,14.431,19.354c0,1.757-0.197,3.489-0.488,5.199l13.265,6.664
		c1.095-3.616,1.827-7.585,1.827-12.201C286.121,308.996,274.322,295.881,257.418,295.881z"/>
	<path style="fill:#FFBC00;" d="M364.536,300.056c-0.126-1.827-1.631-3.245-3.458-3.245h-9.247c-1.465,0-2.757,0.906-3.261,2.261
		l-10.012,27.199c-1.016,2.907-1.906,5.506-2.694,7.924c-0.756-2.418-1.615-5.033-2.584-7.924l-9.57-27.152
		c-0.488-1.386-1.812-2.308-3.277-2.308h-9.247c-1.827,0-3.34,1.402-3.458,3.214l-3.923,56.155
		c-0.063,0.953,0.276,1.906,0.922,2.599c0.662,0.709,1.583,1.111,2.536,1.111h6.924c1.827,0,3.356-1.418,3.458-3.245l1.505-24.096
		c0.079-1.418,0.158-2.859,0.228-4.324c0.244,0.74,0.488,1.481,0.756,2.245l9.074,26.742c0.48,1.402,1.804,2.355,3.293,2.355h5.49
		c1.465,0,2.757-0.922,3.261-2.292l9.925-27.231c0.402-1.095,0.788-2.15,1.15-3.214c0.095,1.757,0.181,3.474,0.276,5.136
		l1.418,24.647c0.095,1.843,1.615,3.277,3.458,3.277h7.073c0.063,0.016,0.095,0.016,0.142,0c1.922,0,3.474-1.552,3.474-3.458
		c0-0.417-0.079-0.819-0.213-1.182L364.536,300.056z"/>
	<path style="fill:#FFBC00;" d="M410.506,321.363c-8.326-3.23-8.94-5.104-8.94-7.585c0-2.402,1.859-4.939,7.089-4.939
		c4.277,0,7.475,1.402,9.003,2.229c0.906,0.504,1.985,0.567,2.922,0.181c0.969-0.37,1.709-1.142,2.032-2.111l2.001-5.923
		c0.536-1.568-0.126-3.308-1.568-4.12c-2.111-1.197-6.75-3.214-14.123-3.214c-12.54,0-21.63,7.877-21.63,18.723
		c0,8.814,5.616,15.092,17.046,19.157c7.735,2.97,8.357,5.246,8.357,7.908c0,5.522-5.782,6.105-8.279,6.105
		c-3.781,0-7.956-1.166-11.169-3.151c-0.906-0.551-2.032-0.662-3.048-0.291c-1.016,0.402-1.788,1.213-2.095,2.245l-1.827,6.089
		c-0.449,1.465,0.126,3.048,1.402,3.891c3.678,2.45,10.366,4.151,16.242,4.151c15.967,0,23.142-9.862,23.142-19.629
		C427.063,329.255,418.217,324.332,410.506,321.363z"/>
</g>
<g>
</g>
<g>
</g>
<g>
</g>
<g>
</g>
<g>
</g>
<g>
</g>
<g>
</g>
<g>
</g>
<g>
</g>
<g>
</g>
<g>
</g>
<g>
</g>
<g>
</g>
<g>
</g>
<g>
</g>
</svg>
